<svg width="442" height="162" viewBox="0 0 442 162" fill="none" xmlns="http://www.w3.org/2000/svg">
<path d="M51.8594 120.359C43.3906 120.359 36.0469 118.734 29.8281 115.484C23.6406 112.234 18.8594 107.594 15.4844 101.562C12.1094 95.5312 10.4219 88.3594 10.4219 80.0469C10.4219 74.0781 11.2969 68.7969 13.0469 64.2031C14.8281 59.6094 17.2656 55.7344 20.3594 52.5781C23.4844 49.4219 27.0625 47.0469 31.0938 45.4531C35.125 43.8281 39.4062 43.0156 43.9375 43.0156C48.6875 43.0156 52.7969 43.7656 56.2656 45.2656C59.7344 46.7656 62.5938 48.9531 64.8438 51.8281L67.2344 44.375H80.125V75.4062H63.0156C62.7656 69.4062 61.5781 65.2656 59.4531 62.9844C57.3594 60.7031 54.6094 59.5625 51.2031 59.5625C48.7031 59.5625 46.3594 60.2656 44.1719 61.6719C42.0156 63.0781 40.2656 65.2344 38.9219 68.1406C37.6094 71.0469 36.9531 74.7656 36.9531 79.2969C36.9531 85.9844 38.6875 91.1094 42.1562 94.6719C45.6562 98.2031 50.5625 99.9688 56.875 99.9688C60.5938 99.9688 64.2344 99.3438 67.7969 98.0938C71.3594 96.8438 74.6719 94.9219 77.7344 92.3281L79 92.8906V112.672C75.375 115.328 71.0938 117.281 66.1562 118.531C61.25 119.75 56.4844 120.359 51.8594 120.359ZM86.4062 119V104.938H93.2031V61.4375H86.4062V48.6406L115.703 45.875V74C119.797 69.9375 125.188 67.9062 131.875 67.9062C137.531 67.9062 141.672 69.5156 144.297 72.7344C146.953 75.9219 148.281 80.7344 148.281 87.1719V104.938H154.844V119H125.781V87.1719C125.781 85.3594 125.391 84.0469 124.609 83.2344C123.828 82.3906 122.797 81.9688 121.516 81.9688C120.453 81.9688 119.391 82.2812 118.328 82.9062C117.297 83.5312 116.422 84.3906 115.703 85.4844V104.938H119.922V119H86.4062ZM160.609 119V104.938H167.406V83.4219H160.609V70.625L189.438 67.8594V77.4688C191.281 74.0625 193.828 71.5781 197.078 70.0156C200.328 68.4531 203.438 67.6719 206.406 67.6719V87.8281C203.594 86.8594 201.016 86.375 198.672 86.375C197.109 86.375 195.469 86.6562 193.75 87.2188C192.031 87.75 190.75 88.4844 189.906 89.4219V104.938H200.688V119H160.609ZM238.328 119.844C232.453 119.844 227.375 118.797 223.094 116.703C218.844 114.609 215.562 111.625 213.25 107.75C210.969 103.875 209.828 99.2656 209.828 93.9219C209.828 88.5469 210.969 83.9219 213.25 80.0469C215.562 76.1719 218.844 73.1875 223.094 71.0938C227.375 68.9688 232.453 67.9062 238.328 67.9062C244.203 67.9062 249.266 68.9688 253.516 71.0938C257.797 73.1875 261.078 76.1719 263.359 80.0469C265.672 83.9219 266.828 88.5469 266.828 93.9219C266.828 99.2656 265.672 103.875 263.359 107.75C261.078 111.625 257.797 114.609 253.516 116.703C249.266 118.797 244.203 119.844 238.328 119.844ZM238.328 106.203C242.547 106.203 244.656 102.094 244.656 93.875C244.656 85.6562 242.547 81.5469 238.328 81.5469C234.109 81.5469 232 85.6562 232 93.875C232 102.094 234.109 106.203 238.328 106.203ZM272.828 119V104.938H279.625V83.4219H272.828V70.625L301.656 67.8594V74.2344C303.594 72.2031 306.016 70.6406 308.922 69.5469C311.828 68.4219 314.953 67.8594 318.297 67.8594C323.953 67.8594 328.094 69.4688 330.719 72.6875C333.375 75.875 334.703 80.6875 334.703 87.125V104.938H341.266V119H312.203V87.125C312.203 85.3125 311.812 84 311.031 83.1875C310.25 82.3438 309.219 81.9219 307.938 81.9219C306.875 81.9219 305.812 82.2344 304.75 82.8594C303.719 83.4844 302.844 84.3438 302.125 85.4375V104.938H306.344V119H272.828ZM344.969 119V104.938H352.234V61.7188H344.969V48.9219L374.734 45.875V104.938H382V119H344.969ZM415.703 119.844C406.422 119.844 399.141 117.516 393.859 112.859C388.609 108.172 385.984 101.688 385.984 93.4062C385.984 88.1875 387.125 83.6719 389.406 79.8594C391.719 76.0469 394.938 73.1094 399.062 71.0469C403.188 68.9531 407.984 67.9062 413.453 67.9062C418.797 67.9062 423.375 68.8906 427.188 70.8594C431 72.7969 433.906 75.5156 435.906 79.0156C437.938 82.4844 438.953 86.5 438.953 91.0625C438.953 92.125 438.906 93.1562 438.812 94.1562C438.719 95.125 438.609 96.0156 438.484 96.8281H408.344C408.875 100.016 410.312 102.312 412.656 103.719C415.031 105.094 417.922 105.781 421.328 105.781C424.203 105.781 426.938 105.281 429.531 104.281C432.156 103.25 434.375 101.969 436.188 100.438L437.453 101V114.453C435.953 115.484 434.016 116.406 431.641 117.219C429.266 118.031 426.688 118.672 423.906 119.141C421.156 119.609 418.422 119.844 415.703 119.844ZM414.672 79.4375C412.578 79.4375 411 80.25 409.938 81.875C408.875 83.5 408.281 85.7656 408.156 88.6719H421.188C421.062 85.7656 420.469 83.5 419.406 81.875C418.375 80.25 416.797 79.4375 414.672 79.4375Z" fill="#1E1E1E"/>
<path d="M50.8594 118.359C42.3906 118.359 35.0469 116.734 28.8281 113.484C22.6406 110.234 17.8594 105.594 14.4844 99.5625C11.1094 93.5312 9.42188 86.3594 9.42188 78.0469C9.42188 72.0781 10.2969 66.7969 12.0469 62.2031C13.8281 57.6094 16.2656 53.7344 19.3594 50.5781C22.4844 47.4219 26.0625 45.0469 30.0938 43.4531C34.125 41.8281 38.4062 41.0156 42.9375 41.0156C47.6875 41.0156 51.7969 41.7656 55.2656 43.2656C58.7344 44.7656 61.5938 46.9531 63.8438 49.8281L66.2344 42.375H79.125V73.4062H62.0156C61.7656 67.4062 60.5781 63.2656 58.4531 60.9844C56.3594 58.7031 53.6094 57.5625 50.2031 57.5625C47.7031 57.5625 45.3594 58.2656 43.1719 59.6719C41.0156 61.0781 39.2656 63.2344 37.9219 66.1406C36.6094 69.0469 35.9531 72.7656 35.9531 77.2969C35.9531 83.9844 37.6875 89.1094 41.1562 92.6719C44.6562 96.2031 49.5625 97.9688 55.875 97.9688C59.5938 97.9688 63.2344 97.3438 66.7969 96.0938C70.3594 94.8438 73.6719 92.9219 76.7344 90.3281L78 90.8906V110.672C74.375 113.328 70.0938 115.281 65.1562 116.531C60.25 117.75 55.4844 118.359 50.8594 118.359ZM85.4062 117V102.938H92.2031V59.4375H85.4062V46.6406L114.703 43.875V72C118.797 67.9375 124.188 65.9062 130.875 65.9062C136.531 65.9062 140.672 67.5156 143.297 70.7344C145.953 73.9219 147.281 78.7344 147.281 85.1719V102.938H153.844V117H124.781V85.1719C124.781 83.3594 124.391 82.0469 123.609 81.2344C122.828 80.3906 121.797 79.9688 120.516 79.9688C119.453 79.9688 118.391 80.2812 117.328 80.9062C116.297 81.5312 115.422 82.3906 114.703 83.4844V102.938H118.922V117H85.4062ZM159.609 117V102.938H166.406V81.4219H159.609V68.625L188.438 65.8594V75.4688C190.281 72.0625 192.828 69.5781 196.078 68.0156C199.328 66.4531 202.438 65.6719 205.406 65.6719V85.8281C202.594 84.8594 200.016 84.375 197.672 84.375C196.109 84.375 194.469 84.6562 192.75 85.2188C191.031 85.75 189.75 86.4844 188.906 87.4219V102.938H199.688V117H159.609ZM237.328 117.844C231.453 117.844 226.375 116.797 222.094 114.703C217.844 112.609 214.562 109.625 212.25 105.75C209.969 101.875 208.828 97.2656 208.828 91.9219C208.828 86.5469 209.969 81.9219 212.25 78.0469C214.562 74.1719 217.844 71.1875 222.094 69.0938C226.375 66.9688 231.453 65.9062 237.328 65.9062C243.203 65.9062 248.266 66.9688 252.516 69.0938C256.797 71.1875 260.078 74.1719 262.359 78.0469C264.672 81.9219 265.828 86.5469 265.828 91.9219C265.828 97.2656 264.672 101.875 262.359 105.75C260.078 109.625 256.797 112.609 252.516 114.703C248.266 116.797 243.203 117.844 237.328 117.844ZM237.328 104.203C241.547 104.203 243.656 100.094 243.656 91.875C243.656 83.6562 241.547 79.5469 237.328 79.5469C233.109 79.5469 231 83.6562 231 91.875C231 100.094 233.109 104.203 237.328 104.203ZM271.828 117V102.938H278.625V81.4219H271.828V68.625L300.656 65.8594V72.2344C302.594 70.2031 305.016 68.6406 307.922 67.5469C310.828 66.4219 313.953 65.8594 317.297 65.8594C322.953 65.8594 327.094 67.4688 329.719 70.6875C332.375 73.875 333.703 78.6875 333.703 85.125V102.938H340.266V117H311.203V85.125C311.203 83.3125 310.812 82 310.031 81.1875C309.25 80.3438 308.219 79.9219 306.938 79.9219C305.875 79.9219 304.812 80.2344 303.75 80.8594C302.719 81.4844 301.844 82.3438 301.125 83.4375V102.938H305.344V117H271.828ZM343.969 117V102.938H351.234V59.7188H343.969V46.9219L373.734 43.875V102.938H381V117H343.969ZM414.703 117.844C405.422 117.844 398.141 115.516 392.859 110.859C387.609 106.172 384.984 99.6875 384.984 91.4062C384.984 86.1875 386.125 81.6719 388.406 77.8594C390.719 74.0469 393.938 71.1094 398.062 69.0469C402.188 66.9531 406.984 65.9062 412.453 65.9062C417.797 65.9062 422.375 66.8906 426.188 68.8594C430 70.7969 432.906 73.5156 434.906 77.0156C436.938 80.4844 437.953 84.5 437.953 89.0625C437.953 90.125 437.906 91.1562 437.812 92.1562C437.719 93.125 437.609 94.0156 437.484 94.8281H407.344C407.875 98.0156 409.312 100.312 411.656 101.719C414.031 103.094 416.922 103.781 420.328 103.781C423.203 103.781 425.938 103.281 428.531 102.281C431.156 101.25 433.375 99.9688 435.188 98.4375L436.453 99V112.453C434.953 113.484 433.016 114.406 430.641 115.219C428.266 116.031 425.688 116.672 422.906 117.141C420.156 117.609 417.422 117.844 414.703 117.844ZM413.672 77.4375C411.578 77.4375 410 78.25 408.938 79.875C407.875 81.5 407.281 83.7656 407.156 86.6719H420.188C420.062 83.7656 419.469 81.5 418.406 79.875C417.375 78.25 415.797 77.4375 413.672 77.4375Z" fill="#1E1E1E"/>
<path d="M49.8594 116.359C41.3906 116.359 34.0469 114.734 27.8281 111.484C21.6406 108.234 16.8594 103.594 13.4844 97.5625C10.1094 91.5312 8.42188 84.3594 8.42188 76.0469C8.42188 70.0781 9.29688 64.7969 11.0469 60.2031C12.8281 55.6094 15.2656 51.7344 18.3594 48.5781C21.4844 45.4219 25.0625 43.0469 29.0938 41.4531C33.125 39.8281 37.4062 39.0156 41.9375 39.0156C46.6875 39.0156 50.7969 39.7656 54.2656 41.2656C57.7344 42.7656 60.5938 44.9531 62.8438 47.8281L65.2344 40.375H78.125V71.4062H61.0156C60.7656 65.4062 59.5781 61.2656 57.4531 58.9844C55.3594 56.7031 52.6094 55.5625 49.2031 55.5625C46.7031 55.5625 44.3594 56.2656 42.1719 57.6719C40.0156 59.0781 38.2656 61.2344 36.9219 64.1406C35.6094 67.0469 34.9531 70.7656 34.9531 75.2969C34.9531 81.9844 36.6875 87.1094 40.1562 90.6719C43.6562 94.2031 48.5625 95.9688 54.875 95.9688C58.5938 95.9688 62.2344 95.3438 65.7969 94.0938C69.3594 92.8438 72.6719 90.9219 75.7344 88.3281L77 88.8906V108.672C73.375 111.328 69.0938 113.281 64.1562 114.531C59.25 115.75 54.4844 116.359 49.8594 116.359ZM84.4062 115V100.938H91.2031V57.4375H84.4062V44.6406L113.703 41.875V70C117.797 65.9375 123.188 63.9062 129.875 63.9062C135.531 63.9062 139.672 65.5156 142.297 68.7344C144.953 71.9219 146.281 76.7344 146.281 83.1719V100.938H152.844V115H123.781V83.1719C123.781 81.3594 123.391 80.0469 122.609 79.2344C121.828 78.3906 120.797 77.9688 119.516 77.9688C118.453 77.9688 117.391 78.2812 116.328 78.9062C115.297 79.5312 114.422 80.3906 113.703 81.4844V100.938H117.922V115H84.4062ZM158.609 115V100.938H165.406V79.4219H158.609V66.625L187.438 63.8594V73.4688C189.281 70.0625 191.828 67.5781 195.078 66.0156C198.328 64.4531 201.438 63.6719 204.406 63.6719V83.8281C201.594 82.8594 199.016 82.375 196.672 82.375C195.109 82.375 193.469 82.6562 191.75 83.2188C190.031 83.75 188.75 84.4844 187.906 85.4219V100.938H198.688V115H158.609ZM236.328 115.844C230.453 115.844 225.375 114.797 221.094 112.703C216.844 110.609 213.562 107.625 211.25 103.75C208.969 99.875 207.828 95.2656 207.828 89.9219C207.828 84.5469 208.969 79.9219 211.25 76.0469C213.562 72.1719 216.844 69.1875 221.094 67.0938C225.375 64.9688 230.453 63.9062 236.328 63.9062C242.203 63.9062 247.266 64.9688 251.516 67.0938C255.797 69.1875 259.078 72.1719 261.359 76.0469C263.672 79.9219 264.828 84.5469 264.828 89.9219C264.828 95.2656 263.672 99.875 261.359 103.75C259.078 107.625 255.797 110.609 251.516 112.703C247.266 114.797 242.203 115.844 236.328 115.844ZM236.328 102.203C240.547 102.203 242.656 98.0938 242.656 89.875C242.656 81.6562 240.547 77.5469 236.328 77.5469C232.109 77.5469 230 81.6562 230 89.875C230 98.0938 232.109 102.203 236.328 102.203ZM270.828 115V100.938H277.625V79.4219H270.828V66.625L299.656 63.8594V70.2344C301.594 68.2031 304.016 66.6406 306.922 65.5469C309.828 64.4219 312.953 63.8594 316.297 63.8594C321.953 63.8594 326.094 65.4688 328.719 68.6875C331.375 71.875 332.703 76.6875 332.703 83.125V100.938H339.266V115H310.203V83.125C310.203 81.3125 309.812 80 309.031 79.1875C308.25 78.3438 307.219 77.9219 305.938 77.9219C304.875 77.9219 303.812 78.2344 302.75 78.8594C301.719 79.4844 300.844 80.3438 300.125 81.4375V100.938H304.344V115H270.828ZM342.969 115V100.938H350.234V57.7188H342.969V44.9219L372.734 41.875V100.938H380V115H342.969ZM413.703 115.844C404.422 115.844 397.141 113.516 391.859 108.859C386.609 104.172 383.984 97.6875 383.984 89.4062C383.984 84.1875 385.125 79.6719 387.406 75.8594C389.719 72.0469 392.938 69.1094 397.062 67.0469C401.188 64.9531 405.984 63.9062 411.453 63.9062C416.797 63.9062 421.375 64.8906 425.188 66.8594C429 68.7969 431.906 71.5156 433.906 75.0156C435.938 78.4844 436.953 82.5 436.953 87.0625C436.953 88.125 436.906 89.1562 436.812 90.1562C436.719 91.125 436.609 92.0156 436.484 92.8281H406.344C406.875 96.0156 408.312 98.3125 410.656 99.7188C413.031 101.094 415.922 101.781 419.328 101.781C422.203 101.781 424.938 101.281 427.531 100.281C430.156 99.25 432.375 97.9688 434.188 96.4375L435.453 97V110.453C433.953 111.484 432.016 112.406 429.641 113.219C427.266 114.031 424.688 114.672 421.906 115.141C419.156 115.609 416.422 115.844 413.703 115.844ZM412.672 75.4375C410.578 75.4375 409 76.25 407.938 77.875C406.875 79.5 406.281 81.7656 406.156 84.6719H419.188C419.062 81.7656 418.469 79.5 417.406 77.875C416.375 76.25 414.797 75.4375 412.672 75.4375Z" fill="#1E1E1E"/>
<path d="M48.8594 114.359C40.3906 114.359 33.0469 112.734 26.8281 109.484C20.6406 106.234 15.8594 101.594 12.4844 95.5625C9.10938 89.5312 7.42188 82.3594 7.42188 74.0469C7.42188 68.0781 8.29688 62.7969 10.0469 58.2031C11.8281 53.6094 14.2656 49.7344 17.3594 46.5781C20.4844 43.4219 24.0625 41.0469 28.0938 39.4531C32.125 37.8281 36.4062 37.0156 40.9375 37.0156C45.6875 37.0156 49.7969 37.7656 53.2656 39.2656C56.7344 40.7656 59.5938 42.9531 61.8438 45.8281L64.2344 38.375H77.125V69.4062H60.0156C59.7656 63.4062 58.5781 59.2656 56.4531 56.9844C54.3594 54.7031 51.6094 53.5625 48.2031 53.5625C45.7031 53.5625 43.3594 54.2656 41.1719 55.6719C39.0156 57.0781 37.2656 59.2344 35.9219 62.1406C34.6094 65.0469 33.9531 68.7656 33.9531 73.2969C33.9531 79.9844 35.6875 85.1094 39.1562 88.6719C42.6562 92.2031 47.5625 93.9688 53.875 93.9688C57.5938 93.9688 61.2344 93.3438 64.7969 92.0938C68.3594 90.8438 71.6719 88.9219 74.7344 86.3281L76 86.8906V106.672C72.375 109.328 68.0938 111.281 63.1562 112.531C58.25 113.75 53.4844 114.359 48.8594 114.359ZM83.4062 113V98.9375H90.2031V55.4375H83.4062V42.6406L112.703 39.875V68C116.797 63.9375 122.188 61.9062 128.875 61.9062C134.531 61.9062 138.672 63.5156 141.297 66.7344C143.953 69.9219 145.281 74.7344 145.281 81.1719V98.9375H151.844V113H122.781V81.1719C122.781 79.3594 122.391 78.0469 121.609 77.2344C120.828 76.3906 119.797 75.9688 118.516 75.9688C117.453 75.9688 116.391 76.2812 115.328 76.9062C114.297 77.5312 113.422 78.3906 112.703 79.4844V98.9375H116.922V113H83.4062ZM157.609 113V98.9375H164.406V77.4219H157.609V64.625L186.438 61.8594V71.4688C188.281 68.0625 190.828 65.5781 194.078 64.0156C197.328 62.4531 200.438 61.6719 203.406 61.6719V81.8281C200.594 80.8594 198.016 80.375 195.672 80.375C194.109 80.375 192.469 80.6562 190.75 81.2188C189.031 81.75 187.75 82.4844 186.906 83.4219V98.9375H197.688V113H157.609ZM235.328 113.844C229.453 113.844 224.375 112.797 220.094 110.703C215.844 108.609 212.562 105.625 210.25 101.75C207.969 97.875 206.828 93.2656 206.828 87.9219C206.828 82.5469 207.969 77.9219 210.25 74.0469C212.562 70.1719 215.844 67.1875 220.094 65.0938C224.375 62.9688 229.453 61.9062 235.328 61.9062C241.203 61.9062 246.266 62.9688 250.516 65.0938C254.797 67.1875 258.078 70.1719 260.359 74.0469C262.672 77.9219 263.828 82.5469 263.828 87.9219C263.828 93.2656 262.672 97.875 260.359 101.75C258.078 105.625 254.797 108.609 250.516 110.703C246.266 112.797 241.203 113.844 235.328 113.844ZM235.328 100.203C239.547 100.203 241.656 96.0938 241.656 87.875C241.656 79.6562 239.547 75.5469 235.328 75.5469C231.109 75.5469 229 79.6562 229 87.875C229 96.0938 231.109 100.203 235.328 100.203ZM269.828 113V98.9375H276.625V77.4219H269.828V64.625L298.656 61.8594V68.2344C300.594 66.2031 303.016 64.6406 305.922 63.5469C308.828 62.4219 311.953 61.8594 315.297 61.8594C320.953 61.8594 325.094 63.4688 327.719 66.6875C330.375 69.875 331.703 74.6875 331.703 81.125V98.9375H338.266V113H309.203V81.125C309.203 79.3125 308.812 78 308.031 77.1875C307.25 76.3438 306.219 75.9219 304.938 75.9219C303.875 75.9219 302.812 76.2344 301.75 76.8594C300.719 77.4844 299.844 78.3438 299.125 79.4375V98.9375H303.344V113H269.828ZM341.969 113V98.9375H349.234V55.7188H341.969V42.9219L371.734 39.875V98.9375H379V113H341.969ZM412.703 113.844C403.422 113.844 396.141 111.516 390.859 106.859C385.609 102.172 382.984 95.6875 382.984 87.4062C382.984 82.1875 384.125 77.6719 386.406 73.8594C388.719 70.0469 391.938 67.1094 396.062 65.0469C400.188 62.9531 404.984 61.9062 410.453 61.9062C415.797 61.9062 420.375 62.8906 424.188 64.8594C428 66.7969 430.906 69.5156 432.906 73.0156C434.938 76.4844 435.953 80.5 435.953 85.0625C435.953 86.125 435.906 87.1562 435.812 88.1562C435.719 89.125 435.609 90.0156 435.484 90.8281H405.344C405.875 94.0156 407.312 96.3125 409.656 97.7188C412.031 99.0938 414.922 99.7812 418.328 99.7812C421.203 99.7812 423.938 99.2812 426.531 98.2812C429.156 97.25 431.375 95.9688 433.188 94.4375L434.453 95V108.453C432.953 109.484 431.016 110.406 428.641 111.219C426.266 112.031 423.688 112.672 420.906 113.141C418.156 113.609 415.422 113.844 412.703 113.844ZM411.672 73.4375C409.578 73.4375 408 74.25 406.938 75.875C405.875 77.5 405.281 79.7656 405.156 82.6719H418.188C418.062 79.7656 417.469 77.5 416.406 75.875C415.375 74.25 413.797 73.4375 411.672 73.4375Z" fill="#1E1E1E"/>
<path d="M47.8594 112.359C39.3906 112.359 32.0469 110.734 25.8281 107.484C19.6406 104.234 14.8594 99.5938 11.4844 93.5625C8.10938 87.5312 6.42188 80.3594 6.42188 72.0469C6.42188 66.0781 7.29688 60.7969 9.04688 56.2031C10.8281 51.6094 13.2656 47.7344 16.3594 44.5781C19.4844 41.4219 23.0625 39.0469 27.0938 37.4531C31.125 35.8281 35.4062 35.0156 39.9375 35.0156C44.6875 35.0156 48.7969 35.7656 52.2656 37.2656C55.7344 38.7656 58.5938 40.9531 60.8438 43.8281L63.2344 36.375H76.125V67.4062H59.0156C58.7656 61.4062 57.5781 57.2656 55.4531 54.9844C53.3594 52.7031 50.6094 51.5625 47.2031 51.5625C44.7031 51.5625 42.3594 52.2656 40.1719 53.6719C38.0156 55.0781 36.2656 57.2344 34.9219 60.1406C33.6094 63.0469 32.9531 66.7656 32.9531 71.2969C32.9531 77.9844 34.6875 83.1094 38.1562 86.6719C41.6562 90.2031 46.5625 91.9688 52.875 91.9688C56.5938 91.9688 60.2344 91.3438 63.7969 90.0938C67.3594 88.8438 70.6719 86.9219 73.7344 84.3281L75 84.8906V104.672C71.375 107.328 67.0938 109.281 62.1562 110.531C57.25 111.75 52.4844 112.359 47.8594 112.359ZM82.4062 111V96.9375H89.2031V53.4375H82.4062V40.6406L111.703 37.875V66C115.797 61.9375 121.188 59.9062 127.875 59.9062C133.531 59.9062 137.672 61.5156 140.297 64.7344C142.953 67.9219 144.281 72.7344 144.281 79.1719V96.9375H150.844V111H121.781V79.1719C121.781 77.3594 121.391 76.0469 120.609 75.2344C119.828 74.3906 118.797 73.9688 117.516 73.9688C116.453 73.9688 115.391 74.2812 114.328 74.9062C113.297 75.5312 112.422 76.3906 111.703 77.4844V96.9375H115.922V111H82.4062ZM156.609 111V96.9375H163.406V75.4219H156.609V62.625L185.438 59.8594V69.4688C187.281 66.0625 189.828 63.5781 193.078 62.0156C196.328 60.4531 199.438 59.6719 202.406 59.6719V79.8281C199.594 78.8594 197.016 78.375 194.672 78.375C193.109 78.375 191.469 78.6562 189.75 79.2188C188.031 79.75 186.75 80.4844 185.906 81.4219V96.9375H196.688V111H156.609ZM234.328 111.844C228.453 111.844 223.375 110.797 219.094 108.703C214.844 106.609 211.562 103.625 209.25 99.75C206.969 95.875 205.828 91.2656 205.828 85.9219C205.828 80.5469 206.969 75.9219 209.25 72.0469C211.562 68.1719 214.844 65.1875 219.094 63.0938C223.375 60.9688 228.453 59.9062 234.328 59.9062C240.203 59.9062 245.266 60.9688 249.516 63.0938C253.797 65.1875 257.078 68.1719 259.359 72.0469C261.672 75.9219 262.828 80.5469 262.828 85.9219C262.828 91.2656 261.672 95.875 259.359 99.75C257.078 103.625 253.797 106.609 249.516 108.703C245.266 110.797 240.203 111.844 234.328 111.844ZM234.328 98.2031C238.547 98.2031 240.656 94.0938 240.656 85.875C240.656 77.6562 238.547 73.5469 234.328 73.5469C230.109 73.5469 228 77.6562 228 85.875C228 94.0938 230.109 98.2031 234.328 98.2031ZM268.828 111V96.9375H275.625V75.4219H268.828V62.625L297.656 59.8594V66.2344C299.594 64.2031 302.016 62.6406 304.922 61.5469C307.828 60.4219 310.953 59.8594 314.297 59.8594C319.953 59.8594 324.094 61.4688 326.719 64.6875C329.375 67.875 330.703 72.6875 330.703 79.125V96.9375H337.266V111H308.203V79.125C308.203 77.3125 307.812 76 307.031 75.1875C306.25 74.3438 305.219 73.9219 303.938 73.9219C302.875 73.9219 301.812 74.2344 300.75 74.8594C299.719 75.4844 298.844 76.3438 298.125 77.4375V96.9375H302.344V111H268.828ZM340.969 111V96.9375H348.234V53.7188H340.969V40.9219L370.734 37.875V96.9375H378V111H340.969ZM411.703 111.844C402.422 111.844 395.141 109.516 389.859 104.859C384.609 100.172 381.984 93.6875 381.984 85.4062C381.984 80.1875 383.125 75.6719 385.406 71.8594C387.719 68.0469 390.938 65.1094 395.062 63.0469C399.188 60.9531 403.984 59.9062 409.453 59.9062C414.797 59.9062 419.375 60.8906 423.188 62.8594C427 64.7969 429.906 67.5156 431.906 71.0156C433.938 74.4844 434.953 78.5 434.953 83.0625C434.953 84.125 434.906 85.1562 434.812 86.1562C434.719 87.125 434.609 88.0156 434.484 88.8281H404.344C404.875 92.0156 406.312 94.3125 408.656 95.7188C411.031 97.0938 413.922 97.7812 417.328 97.7812C420.203 97.7812 422.938 97.2812 425.531 96.2812C428.156 95.25 430.375 93.9688 432.188 92.4375L433.453 93V106.453C431.953 107.484 430.016 108.406 427.641 109.219C425.266 110.031 422.688 110.672 419.906 111.141C417.156 111.609 414.422 111.844 411.703 111.844ZM410.672 71.4375C408.578 71.4375 407 72.25 405.938 73.875C404.875 75.5 404.281 77.7656 404.156 80.6719H417.188C417.062 77.7656 416.469 75.5 415.406 73.875C414.375 72.25 412.797 71.4375 410.672 71.4375Z" fill="#1E1E1E"/>
<mask id="path-6-outside-1_50_33" maskUnits="userSpaceOnUse" x="0" y="32" width="435" height="84" fill="black">
<rect fill="white" y="32" width="435" height="84"/>
<path d="M44.8594 112.359C36.3906 112.359 29.0469 110.734 22.8281 107.484C16.6406 104.234 11.8594 99.5938 8.48438 93.5625C5.10938 87.5312 3.42188 80.3594 3.42188 72.0469C3.42188 66.0781 4.29688 60.7969 6.04688 56.2031C7.82812 51.6094 10.2656 47.7344 13.3594 44.5781C16.4844 41.4219 20.0625 39.0469 24.0938 37.4531C28.125 35.8281 32.4062 35.0156 36.9375 35.0156C41.6875 35.0156 45.7969 35.7656 49.2656 37.2656C52.7344 38.7656 55.5938 40.9531 57.8438 43.8281L60.2344 36.375H73.125V67.4062H56.0156C55.7656 61.4062 54.5781 57.2656 52.4531 54.9844C50.3594 52.7031 47.6094 51.5625 44.2031 51.5625C41.7031 51.5625 39.3594 52.2656 37.1719 53.6719C35.0156 55.0781 33.2656 57.2344 31.9219 60.1406C30.6094 63.0469 29.9531 66.7656 29.9531 71.2969C29.9531 77.9844 31.6875 83.1094 35.1562 86.6719C38.6562 90.2031 43.5625 91.9688 49.875 91.9688C53.5938 91.9688 57.2344 91.3438 60.7969 90.0938C64.3594 88.8438 67.6719 86.9219 70.7344 84.3281L72 84.8906V104.672C68.375 107.328 64.0938 109.281 59.1562 110.531C54.25 111.75 49.4844 112.359 44.8594 112.359ZM79.4062 111V96.9375H86.2031V53.4375H79.4062V40.6406L108.703 37.875V66C112.797 61.9375 118.188 59.9062 124.875 59.9062C130.531 59.9062 134.672 61.5156 137.297 64.7344C139.953 67.9219 141.281 72.7344 141.281 79.1719V96.9375H147.844V111H118.781V79.1719C118.781 77.3594 118.391 76.0469 117.609 75.2344C116.828 74.3906 115.797 73.9688 114.516 73.9688C113.453 73.9688 112.391 74.2812 111.328 74.9062C110.297 75.5312 109.422 76.3906 108.703 77.4844V96.9375H112.922V111H79.4062ZM153.609 111V96.9375H160.406V75.4219H153.609V62.625L182.438 59.8594V69.4688C184.281 66.0625 186.828 63.5781 190.078 62.0156C193.328 60.4531 196.438 59.6719 199.406 59.6719V79.8281C196.594 78.8594 194.016 78.375 191.672 78.375C190.109 78.375 188.469 78.6562 186.75 79.2188C185.031 79.75 183.75 80.4844 182.906 81.4219V96.9375H193.688V111H153.609ZM231.328 111.844C225.453 111.844 220.375 110.797 216.094 108.703C211.844 106.609 208.562 103.625 206.25 99.75C203.969 95.875 202.828 91.2656 202.828 85.9219C202.828 80.5469 203.969 75.9219 206.25 72.0469C208.562 68.1719 211.844 65.1875 216.094 63.0938C220.375 60.9688 225.453 59.9062 231.328 59.9062C237.203 59.9062 242.266 60.9688 246.516 63.0938C250.797 65.1875 254.078 68.1719 256.359 72.0469C258.672 75.9219 259.828 80.5469 259.828 85.9219C259.828 91.2656 258.672 95.875 256.359 99.75C254.078 103.625 250.797 106.609 246.516 108.703C242.266 110.797 237.203 111.844 231.328 111.844ZM231.328 98.2031C235.547 98.2031 237.656 94.0938 237.656 85.875C237.656 77.6562 235.547 73.5469 231.328 73.5469C227.109 73.5469 225 77.6562 225 85.875C225 94.0938 227.109 98.2031 231.328 98.2031ZM265.828 111V96.9375H272.625V75.4219H265.828V62.625L294.656 59.8594V66.2344C296.594 64.2031 299.016 62.6406 301.922 61.5469C304.828 60.4219 307.953 59.8594 311.297 59.8594C316.953 59.8594 321.094 61.4688 323.719 64.6875C326.375 67.875 327.703 72.6875 327.703 79.125V96.9375H334.266V111H305.203V79.125C305.203 77.3125 304.812 76 304.031 75.1875C303.25 74.3438 302.219 73.9219 300.938 73.9219C299.875 73.9219 298.812 74.2344 297.75 74.8594C296.719 75.4844 295.844 76.3438 295.125 77.4375V96.9375H299.344V111H265.828ZM337.969 111V96.9375H345.234V53.7188H337.969V40.9219L367.734 37.875V96.9375H375V111H337.969ZM408.703 111.844C399.422 111.844 392.141 109.516 386.859 104.859C381.609 100.172 378.984 93.6875 378.984 85.4062C378.984 80.1875 380.125 75.6719 382.406 71.8594C384.719 68.0469 387.938 65.1094 392.062 63.0469C396.188 60.9531 400.984 59.9062 406.453 59.9062C411.797 59.9062 416.375 60.8906 420.188 62.8594C424 64.7969 426.906 67.5156 428.906 71.0156C430.938 74.4844 431.953 78.5 431.953 83.0625C431.953 84.125 431.906 85.1562 431.812 86.1562C431.719 87.125 431.609 88.0156 431.484 88.8281H401.344C401.875 92.0156 403.312 94.3125 405.656 95.7188C408.031 97.0938 410.922 97.7812 414.328 97.7812C417.203 97.7812 419.938 97.2812 422.531 96.2812C425.156 95.25 427.375 93.9688 429.188 92.4375L430.453 93V106.453C428.953 107.484 427.016 108.406 424.641 109.219C422.266 110.031 419.688 110.672 416.906 111.141C414.156 111.609 411.422 111.844 408.703 111.844ZM407.672 71.4375C405.578 71.4375 404 72.25 402.938 73.875C401.875 75.5 401.281 77.7656 401.156 80.6719H414.188C414.062 77.7656 413.469 75.5 412.406 73.875C411.375 72.25 409.797 71.4375 407.672 71.4375Z"/>
</mask>
<path d="M44.8594 112.359C36.3906 112.359 29.0469 110.734 22.8281 107.484C16.6406 104.234 11.8594 99.5938 8.48438 93.5625C5.10938 87.5312 3.42188 80.3594 3.42188 72.0469C3.42188 66.0781 4.29688 60.7969 6.04688 56.2031C7.82812 51.6094 10.2656 47.7344 13.3594 44.5781C16.4844 41.4219 20.0625 39.0469 24.0938 37.4531C28.125 35.8281 32.4062 35.0156 36.9375 35.0156C41.6875 35.0156 45.7969 35.7656 49.2656 37.2656C52.7344 38.7656 55.5938 40.9531 57.8438 43.8281L60.2344 36.375H73.125V67.4062H56.0156C55.7656 61.4062 54.5781 57.2656 52.4531 54.9844C50.3594 52.7031 47.6094 51.5625 44.2031 51.5625C41.7031 51.5625 39.3594 52.2656 37.1719 53.6719C35.0156 55.0781 33.2656 57.2344 31.9219 60.1406C30.6094 63.0469 29.9531 66.7656 29.9531 71.2969C29.9531 77.9844 31.6875 83.1094 35.1562 86.6719C38.6562 90.2031 43.5625 91.9688 49.875 91.9688C53.5938 91.9688 57.2344 91.3438 60.7969 90.0938C64.3594 88.8438 67.6719 86.9219 70.7344 84.3281L72 84.8906V104.672C68.375 107.328 64.0938 109.281 59.1562 110.531C54.25 111.75 49.4844 112.359 44.8594 112.359ZM79.4062 111V96.9375H86.2031V53.4375H79.4062V40.6406L108.703 37.875V66C112.797 61.9375 118.188 59.9062 124.875 59.9062C130.531 59.9062 134.672 61.5156 137.297 64.7344C139.953 67.9219 141.281 72.7344 141.281 79.1719V96.9375H147.844V111H118.781V79.1719C118.781 77.3594 118.391 76.0469 117.609 75.2344C116.828 74.3906 115.797 73.9688 114.516 73.9688C113.453 73.9688 112.391 74.2812 111.328 74.9062C110.297 75.5312 109.422 76.3906 108.703 77.4844V96.9375H112.922V111H79.4062ZM153.609 111V96.9375H160.406V75.4219H153.609V62.625L182.438 59.8594V69.4688C184.281 66.0625 186.828 63.5781 190.078 62.0156C193.328 60.4531 196.438 59.6719 199.406 59.6719V79.8281C196.594 78.8594 194.016 78.375 191.672 78.375C190.109 78.375 188.469 78.6562 186.75 79.2188C185.031 79.75 183.75 80.4844 182.906 81.4219V96.9375H193.688V111H153.609ZM231.328 111.844C225.453 111.844 220.375 110.797 216.094 108.703C211.844 106.609 208.562 103.625 206.25 99.75C203.969 95.875 202.828 91.2656 202.828 85.9219C202.828 80.5469 203.969 75.9219 206.25 72.0469C208.562 68.1719 211.844 65.1875 216.094 63.0938C220.375 60.9688 225.453 59.9062 231.328 59.9062C237.203 59.9062 242.266 60.9688 246.516 63.0938C250.797 65.1875 254.078 68.1719 256.359 72.0469C258.672 75.9219 259.828 80.5469 259.828 85.9219C259.828 91.2656 258.672 95.875 256.359 99.75C254.078 103.625 250.797 106.609 246.516 108.703C242.266 110.797 237.203 111.844 231.328 111.844ZM231.328 98.2031C235.547 98.2031 237.656 94.0938 237.656 85.875C237.656 77.6562 235.547 73.5469 231.328 73.5469C227.109 73.5469 225 77.6562 225 85.875C225 94.0938 227.109 98.2031 231.328 98.2031ZM265.828 111V96.9375H272.625V75.4219H265.828V62.625L294.656 59.8594V66.2344C296.594 64.2031 299.016 62.6406 301.922 61.5469C304.828 60.4219 307.953 59.8594 311.297 59.8594C316.953 59.8594 321.094 61.4688 323.719 64.6875C326.375 67.875 327.703 72.6875 327.703 79.125V96.9375H334.266V111H305.203V79.125C305.203 77.3125 304.812 76 304.031 75.1875C303.25 74.3438 302.219 73.9219 300.938 73.9219C299.875 73.9219 298.812 74.2344 297.75 74.8594C296.719 75.4844 295.844 76.3438 295.125 77.4375V96.9375H299.344V111H265.828ZM337.969 111V96.9375H345.234V53.7188H337.969V40.9219L367.734 37.875V96.9375H375V111H337.969ZM408.703 111.844C399.422 111.844 392.141 109.516 386.859 104.859C381.609 100.172 378.984 93.6875 378.984 85.4062C378.984 80.1875 380.125 75.6719 382.406 71.8594C384.719 68.0469 387.938 65.1094 392.062 63.0469C396.188 60.9531 400.984 59.9062 406.453 59.9062C411.797 59.9062 416.375 60.8906 420.188 62.8594C424 64.7969 426.906 67.5156 428.906 71.0156C430.938 74.4844 431.953 78.5 431.953 83.0625C431.953 84.125 431.906 85.1562 431.812 86.1562C431.719 87.125 431.609 88.0156 431.484 88.8281H401.344C401.875 92.0156 403.312 94.3125 405.656 95.7188C408.031 97.0938 410.922 97.7812 414.328 97.7812C417.203 97.7812 419.938 97.2812 422.531 96.2812C425.156 95.25 427.375 93.9688 429.188 92.4375L430.453 93V106.453C428.953 107.484 427.016 108.406 424.641 109.219C422.266 110.031 419.688 110.672 416.906 111.141C414.156 111.609 411.422 111.844 408.703 111.844ZM407.672 71.4375C405.578 71.4375 404 72.25 402.938 73.875C401.875 75.5 401.281 77.7656 401.156 80.6719H414.188C414.062 77.7656 413.469 75.5 412.406 73.875C411.375 72.25 409.797 71.4375 407.672 71.4375Z" fill="#F9D9C0"/>
<path d="M22.8281 107.484L21.4331 110.14L21.4386 110.143L22.8281 107.484ZM6.04688 56.2031L3.24979 55.1185L3.24658 55.1268L3.24341 55.1351L6.04688 56.2031ZM13.3594 44.5781L11.2275 42.4674L11.2222 42.4727L11.2169 42.4781L13.3594 44.5781ZM24.0938 37.4531L25.1967 40.243L25.2061 40.2393L25.2154 40.2356L24.0938 37.4531ZM57.8438 43.8281L55.4812 45.677L58.971 50.1362L60.7004 44.7444L57.8438 43.8281ZM60.2344 36.375V33.375H58.0461L57.3777 35.4587L60.2344 36.375ZM73.125 36.375H76.125V33.375H73.125V36.375ZM73.125 67.4062V70.4062H76.125V67.4062H73.125ZM56.0156 67.4062L53.0182 67.5311L53.138 70.4062H56.0156V67.4062ZM52.4531 54.9844L50.2429 57.0129L50.2504 57.0211L50.258 57.0292L52.4531 54.9844ZM37.1719 53.6719L35.5496 51.1483L35.5413 51.1537L35.5331 51.159L37.1719 53.6719ZM31.9219 60.1406L29.1989 58.8816L29.1933 58.8937L29.1878 58.9059L31.9219 60.1406ZM35.1562 86.6719L33.0068 88.7647L33.0161 88.7743L33.0255 88.7837L35.1562 86.6719ZM70.7344 84.3281L71.9528 81.5867L70.2323 80.822L68.7955 82.0389L70.7344 84.3281ZM72 84.8906H75V82.941L73.2184 82.1492L72 84.8906ZM72 104.672L73.7732 107.092L75 106.193V104.672H72ZM59.1562 110.531L59.8795 113.443L59.8925 113.439L59.1562 110.531ZM44.8594 109.359C36.7753 109.359 29.9274 107.81 24.2176 104.826L21.4386 110.143C28.1663 113.659 36.006 115.359 44.8594 115.359V109.359ZM24.2232 104.828C18.5439 101.845 14.1903 97.6157 11.1024 92.0975L5.86639 95.0275C9.52849 101.572 14.7374 106.623 21.4331 110.14L24.2232 104.828ZM11.1024 92.0975C8.02405 86.5965 6.42188 79.9502 6.42188 72.0469H0.421875C0.421875 80.7686 2.1947 88.466 5.86639 95.0275L11.1024 92.0975ZM6.42188 72.0469C6.42188 66.3672 7.2548 61.4594 8.85034 57.2711L3.24341 55.1351C1.33895 60.1343 0.421875 65.789 0.421875 72.0469H6.42188ZM8.84396 57.2877C10.495 53.0297 12.7239 49.5121 15.5018 46.6781L11.2169 42.4781C7.80735 45.9566 5.16122 50.1891 3.24979 55.1185L8.84396 57.2877ZM15.4912 46.6889C18.3314 43.8203 21.5614 41.6802 25.1967 40.243L22.9908 34.6632C18.5636 36.4135 14.6374 39.0234 11.2275 42.4674L15.4912 46.6889ZM25.2154 40.2356C28.875 38.7604 32.774 38.0156 36.9375 38.0156V32.0156C32.0385 32.0156 27.375 32.8959 22.9721 34.6707L25.2154 40.2356ZM36.9375 38.0156C41.3796 38.0156 45.0653 38.7178 48.0749 40.0192L50.4564 34.5121C46.5284 32.8135 41.9954 32.0156 36.9375 32.0156V38.0156ZM48.0749 40.0192C51.1004 41.3275 53.5512 43.2109 55.4812 45.677L60.2063 41.9792C57.6363 38.6953 54.3683 36.2037 50.4564 34.5121L48.0749 40.0192ZM60.7004 44.7444L63.091 37.2913L57.3777 35.4587L54.9871 42.9118L60.7004 44.7444ZM60.2344 39.375H73.125V33.375H60.2344V39.375ZM70.125 36.375V67.4062H76.125V36.375H70.125ZM73.125 64.4062H56.0156V70.4062H73.125V64.4062ZM59.013 67.2814C58.7571 61.1396 57.5458 56.0501 54.6483 52.9396L50.258 57.0292C51.6105 58.4811 52.7741 61.6729 53.0182 67.5311L59.013 67.2814ZM54.6633 52.9558C51.941 49.9897 48.356 48.5625 44.2031 48.5625V54.5625C46.8628 54.5625 48.7777 55.4165 50.2429 57.0129L54.6633 52.9558ZM44.2031 48.5625C41.104 48.5625 38.2005 49.4442 35.5496 51.1483L38.7941 56.1954C40.5183 55.0871 42.3023 54.5625 44.2031 54.5625V48.5625ZM35.5331 51.159C32.8019 52.9402 30.7216 55.5882 29.1989 58.8816L34.6449 61.3997C35.8096 58.8805 37.2293 57.216 38.8107 56.1847L35.5331 51.159ZM29.1878 58.9059C27.6425 62.3276 26.9531 66.5062 26.9531 71.2969H32.9531C32.9531 67.025 33.5763 63.7662 34.656 61.3754L29.1878 58.9059ZM26.9531 71.2969C26.9531 78.4896 28.8261 84.471 33.0068 88.7647L37.3057 84.579C34.5489 81.7477 32.9531 77.4792 32.9531 71.2969H26.9531ZM33.0255 88.7837C37.2308 93.0266 42.9893 94.9688 49.875 94.9688V88.9688C44.1357 88.9688 40.0817 87.3797 37.287 84.56L33.0255 88.7837ZM49.875 94.9688C53.9372 94.9688 57.9134 94.2848 61.7901 92.9245L59.8036 87.263C56.5553 88.4027 53.2503 88.9688 49.875 88.9688V94.9688ZM61.7901 92.9245C65.7196 91.5458 69.349 89.4328 72.6732 86.6174L68.7955 82.0389C65.9947 84.4109 62.9992 86.1417 59.8036 87.263L61.7901 92.9245ZM69.516 87.0696L70.7816 87.6321L73.2184 82.1492L71.9528 81.5867L69.516 87.0696ZM69 84.8906V104.672H75V84.8906H69ZM70.2268 102.252C66.9516 104.652 63.0332 106.455 58.42 107.623L59.8925 113.439C65.1543 112.107 69.7984 110.004 73.7732 107.092L70.2268 102.252ZM58.433 107.62C53.7416 108.785 49.2192 109.359 44.8594 109.359V115.359C49.7496 115.359 54.7584 114.715 59.8795 113.443L58.433 107.62ZM79.4062 111H76.4062V114H79.4062V111ZM79.4062 96.9375V93.9375H76.4062V96.9375H79.4062ZM86.2031 96.9375V99.9375H89.2031V96.9375H86.2031ZM86.2031 53.4375H89.2031V50.4375H86.2031V53.4375ZM79.4062 53.4375H76.4062V56.4375H79.4062V53.4375ZM79.4062 40.6406L79.1243 37.6539L76.4062 37.9105V40.6406H79.4062ZM108.703 37.875H111.703V34.5785L108.421 34.8883L108.703 37.875ZM108.703 66H105.703V73.2036L110.816 68.1294L108.703 66ZM137.297 64.7344L134.972 66.6304L134.982 66.6427L134.992 66.6549L137.297 64.7344ZM141.281 96.9375H138.281V99.9375H141.281V96.9375ZM147.844 96.9375H150.844V93.9375H147.844V96.9375ZM147.844 111V114H150.844V111H147.844ZM118.781 111H115.781V114H118.781V111ZM117.609 75.2344L115.408 77.2726L115.427 77.2933L115.447 77.3137L117.609 75.2344ZM111.328 74.9062L109.807 72.3204L109.79 72.3304L109.773 72.3407L111.328 74.9062ZM108.703 77.4844L106.196 75.8368L105.703 76.5869V77.4844H108.703ZM108.703 96.9375H105.703V99.9375H108.703V96.9375ZM112.922 96.9375H115.922V93.9375H112.922V96.9375ZM112.922 111V114H115.922V111H112.922ZM82.4062 111V96.9375H76.4062V111H82.4062ZM79.4062 99.9375H86.2031V93.9375H79.4062V99.9375ZM89.2031 96.9375V53.4375H83.2031V96.9375H89.2031ZM86.2031 50.4375H79.4062V56.4375H86.2031V50.4375ZM82.4062 53.4375V40.6406H76.4062V53.4375H82.4062ZM79.6882 43.6273L108.985 40.8617L108.421 34.8883L79.1243 37.6539L79.6882 43.6273ZM105.703 37.875V66H111.703V37.875H105.703ZM110.816 68.1294C114.258 64.7139 118.843 62.9062 124.875 62.9062V56.9062C117.532 56.9062 111.336 59.1611 106.59 63.8706L110.816 68.1294ZM124.875 62.9062C129.976 62.9062 133.104 64.3402 134.972 66.6304L139.622 62.8384C136.24 58.6911 131.087 56.9062 124.875 56.9062V62.9062ZM134.992 66.6549C137.01 69.0758 138.281 73.0685 138.281 79.1719H144.281C144.281 72.4003 142.897 66.7679 139.602 62.8138L134.992 66.6549ZM138.281 79.1719V96.9375H144.281V79.1719H138.281ZM141.281 99.9375H147.844V93.9375H141.281V99.9375ZM144.844 96.9375V111H150.844V96.9375H144.844ZM147.844 108H118.781V114H147.844V108ZM121.781 111V79.1719H115.781V111H121.781ZM121.781 79.1719C121.781 77.0341 121.337 74.7832 119.772 73.155L115.447 77.3137C115.447 77.314 115.466 77.3327 115.495 77.3862C115.525 77.4414 115.569 77.5359 115.613 77.6839C115.704 77.9893 115.781 78.4677 115.781 79.1719H121.781ZM119.811 73.1962C118.394 71.6657 116.527 70.9688 114.516 70.9688V76.9688C115.067 76.9688 115.263 77.1156 115.408 77.2726L119.811 73.1962ZM114.516 70.9688C112.838 70.9688 111.256 71.4683 109.807 72.3204L112.849 77.4921C113.525 77.0942 114.069 76.9688 114.516 76.9688V70.9688ZM109.773 72.3407C108.328 73.2163 107.139 74.4024 106.196 75.8368L111.21 79.1319C111.705 78.3789 112.265 77.8462 112.883 77.4718L109.773 72.3407ZM105.703 77.4844V96.9375H111.703V77.4844H105.703ZM108.703 99.9375H112.922V93.9375H108.703V99.9375ZM109.922 96.9375V111H115.922V96.9375H109.922ZM112.922 108H79.4062V114H112.922V108ZM153.609 111H150.609V114H153.609V111ZM153.609 96.9375V93.9375H150.609V96.9375H153.609ZM160.406 96.9375V99.9375H163.406V96.9375H160.406ZM160.406 75.4219H163.406V72.4219H160.406V75.4219ZM153.609 75.4219H150.609V78.4219H153.609V75.4219ZM153.609 62.625L153.323 59.6387L150.609 59.899V62.625H153.609ZM182.438 59.8594H185.438V56.5578L182.151 56.8731L182.438 59.8594ZM182.438 69.4688H179.438L185.076 70.8968L182.438 69.4688ZM199.406 59.6719H202.406V56.6719H199.406V59.6719ZM199.406 79.8281L198.429 82.6646L202.406 84.0344V79.8281H199.406ZM186.75 79.2188L187.636 82.085L187.66 82.0776L187.683 82.0699L186.75 79.2188ZM182.906 81.4219L180.676 79.415L179.906 80.2707V81.4219H182.906ZM182.906 96.9375H179.906V99.9375H182.906V96.9375ZM193.688 96.9375H196.688V93.9375H193.688V96.9375ZM193.688 111V114H196.688V111H193.688ZM156.609 111V96.9375H150.609V111H156.609ZM153.609 99.9375H160.406V93.9375H153.609V99.9375ZM163.406 96.9375V75.4219H157.406V96.9375H163.406ZM160.406 72.4219H153.609V78.4219H160.406V72.4219ZM156.609 75.4219V62.625H150.609V75.4219H156.609ZM153.896 65.6113L182.724 62.8457L182.151 56.8731L153.323 59.6387L153.896 65.6113ZM179.438 59.8594V69.4688H185.438V59.8594H179.438ZM185.076 70.8968C186.642 68.0026 188.74 65.9875 191.378 64.7194L188.778 59.3119C184.916 61.1688 181.92 64.1224 179.799 68.0407L185.076 70.8968ZM191.378 64.7194C194.308 63.3107 196.974 62.6719 199.406 62.6719V56.6719C195.901 56.6719 192.348 57.5955 188.778 59.3119L191.378 64.7194ZM196.406 59.6719V79.8281H202.406V59.6719H196.406ZM200.383 76.9917C197.337 75.9424 194.424 75.375 191.672 75.375V81.375C193.607 81.375 195.85 81.7763 198.429 82.6646L200.383 76.9917ZM191.672 75.375C189.747 75.375 187.79 75.7217 185.817 76.3676L187.683 82.0699C189.147 81.5908 190.472 81.375 191.672 81.375V75.375ZM185.864 76.3525C183.837 76.9792 182.005 77.9388 180.676 79.415L185.136 83.4288C185.495 83.0299 186.226 82.5208 187.636 82.085L185.864 76.3525ZM179.906 81.4219V96.9375H185.906V81.4219H179.906ZM182.906 99.9375H193.688V93.9375H182.906V99.9375ZM190.688 96.9375V111H196.688V96.9375H190.688ZM193.688 108H153.609V114H193.688V108ZM216.094 108.703L214.768 111.394L214.776 111.398L216.094 108.703ZM206.25 99.75L203.665 101.272L203.669 101.28L203.674 101.287L206.25 99.75ZM206.25 72.0469L203.674 70.5095L203.669 70.5172L203.665 70.5249L206.25 72.0469ZM216.094 63.0938L217.42 65.7849L217.428 65.7809L216.094 63.0938ZM246.516 63.0938L245.174 65.777L245.186 65.7829L245.198 65.7887L246.516 63.0938ZM256.359 72.0469L253.774 73.5688L253.779 73.5766L253.783 73.5842L256.359 72.0469ZM256.359 99.75L253.783 98.2126L253.779 98.2203L253.774 98.228L256.359 99.75ZM246.516 108.703L245.198 106.008L245.19 106.012L246.516 108.703ZM231.328 108.844C225.806 108.844 221.198 107.86 217.412 106.008L214.776 111.398C219.552 113.734 225.1 114.844 231.328 114.844V108.844ZM217.42 106.012C213.662 104.161 210.827 101.565 208.826 98.2126L203.674 101.287C206.298 105.685 210.026 109.058 214.768 111.394L217.42 106.012ZM208.835 98.228C206.873 94.8945 205.828 90.8318 205.828 85.9219H199.828C199.828 91.6995 201.065 96.8555 203.665 101.272L208.835 98.228ZM205.828 85.9219C205.828 80.9771 206.874 76.8999 208.835 73.5688L203.665 70.5249C201.063 74.9439 199.828 80.1166 199.828 85.9219H205.828ZM208.826 73.5842C210.827 70.2319 213.662 67.6362 217.42 65.7849L214.768 60.4026C210.026 62.7388 206.298 66.1118 203.674 70.5095L208.826 73.5842ZM217.428 65.7809C221.21 63.9035 225.812 62.9062 231.328 62.9062V56.9062C225.094 56.9062 219.54 58.034 214.76 60.4066L217.428 65.7809ZM231.328 62.9062C236.845 62.9062 241.427 63.9037 245.174 65.777L247.857 60.4105C243.104 58.0338 237.561 56.9062 231.328 56.9062V62.9062ZM245.198 65.7887C248.984 67.6404 251.809 70.2316 253.774 73.5688L258.945 70.5249C256.347 66.1122 252.61 62.7346 247.834 60.3988L245.198 65.7887ZM253.783 73.5842C255.769 76.9125 256.828 80.9841 256.828 85.9219H262.828C262.828 80.1097 261.574 74.9313 258.936 70.5095L253.783 73.5842ZM256.828 85.9219C256.828 90.8248 255.771 94.8818 253.783 98.2126L258.936 101.287C261.573 96.8682 262.828 91.7064 262.828 85.9219H256.828ZM253.774 98.228C251.809 101.565 248.984 104.156 245.198 106.008L247.834 111.398C252.61 109.062 256.347 105.685 258.945 101.272L253.774 98.228ZM245.19 106.012C241.439 107.86 236.851 108.844 231.328 108.844V114.844C237.555 114.844 243.092 113.734 247.841 111.394L245.19 106.012ZM231.328 101.203C232.892 101.203 234.397 100.815 235.731 99.9487C237.049 99.0923 238.03 97.8803 238.743 96.4911C240.125 93.7997 240.656 90.1437 240.656 85.875H234.656C234.656 89.8251 234.133 92.3332 233.405 93.7511C233.064 94.4166 232.726 94.7456 232.463 94.9166C232.214 95.0779 231.874 95.2031 231.328 95.2031V101.203ZM240.656 85.875C240.656 81.6063 240.125 77.9503 238.743 75.2589C238.03 73.8697 237.049 72.6577 235.731 71.8013C234.397 70.9353 232.892 70.5469 231.328 70.5469V76.5469C231.874 76.5469 232.214 76.6721 232.463 76.8334C232.726 77.0044 233.064 77.3334 233.405 77.9989C234.133 79.4168 234.656 81.9249 234.656 85.875H240.656ZM231.328 70.5469C229.764 70.5469 228.259 70.9353 226.926 71.8013C225.607 72.6577 224.626 73.8697 223.913 75.2589C222.532 77.9503 222 81.6063 222 85.875H228C228 81.9249 228.523 79.4168 229.251 77.9989C229.593 77.3334 229.93 77.0044 230.193 76.8334C230.442 76.6721 230.783 76.5469 231.328 76.5469V70.5469ZM222 85.875C222 90.1437 222.532 93.7997 223.913 96.4911C224.626 97.8803 225.607 99.0923 226.926 99.9487C228.259 100.815 229.764 101.203 231.328 101.203V95.2031C230.783 95.2031 230.442 95.0779 230.193 94.9166C229.93 94.7456 229.593 94.4166 229.251 93.7511C228.523 92.3332 228 89.8251 228 85.875H222ZM265.828 111H262.828V114H265.828V111ZM265.828 96.9375V93.9375H262.828V96.9375H265.828ZM272.625 96.9375V99.9375H275.625V96.9375H272.625ZM272.625 75.4219H275.625V72.4219H272.625V75.4219ZM265.828 75.4219H262.828V78.4219H265.828V75.4219ZM265.828 62.625L265.542 59.6387L262.828 59.899V62.625H265.828ZM294.656 59.8594H297.656V56.5578L294.37 56.8731L294.656 59.8594ZM294.656 66.2344H291.656V73.726L296.827 68.305L294.656 66.2344ZM301.922 61.5469L302.979 64.3546L302.992 64.3497L303.005 64.3446L301.922 61.5469ZM323.719 64.6875L321.394 66.5835L321.404 66.5958L321.414 66.6081L323.719 64.6875ZM327.703 96.9375H324.703V99.9375H327.703V96.9375ZM334.266 96.9375H337.266V93.9375H334.266V96.9375ZM334.266 111V114H337.266V111H334.266ZM305.203 111H302.203V114H305.203V111ZM304.031 75.1875L301.83 77.2257L301.849 77.2465L301.869 77.2668L304.031 75.1875ZM297.75 74.8594L296.229 72.2736L296.212 72.2836L296.195 72.2938L297.75 74.8594ZM295.125 77.4375L292.618 75.79L292.125 76.54V77.4375H295.125ZM295.125 96.9375H292.125V99.9375H295.125V96.9375ZM299.344 96.9375H302.344V93.9375H299.344V96.9375ZM299.344 111V114H302.344V111H299.344ZM268.828 111V96.9375H262.828V111H268.828ZM265.828 99.9375H272.625V93.9375H265.828V99.9375ZM275.625 96.9375V75.4219H269.625V96.9375H275.625ZM272.625 72.4219H265.828V78.4219H272.625V72.4219ZM268.828 75.4219V62.625H262.828V75.4219H268.828ZM266.115 65.6113L294.943 62.8457L294.37 56.8731L265.542 59.6387L266.115 65.6113ZM291.656 59.8594V66.2344H297.656V59.8594H291.656ZM296.827 68.305C298.422 66.6334 300.449 65.3066 302.979 64.3546L300.865 58.7391C297.582 59.9747 294.766 61.7728 292.485 64.1637L296.827 68.305ZM303.005 64.3446C305.541 63.3628 308.296 62.8594 311.297 62.8594V56.8594C307.61 56.8594 304.115 57.481 300.839 58.7492L303.005 64.3446ZM311.297 62.8594C316.398 62.8594 319.526 64.2933 321.394 66.5835L326.044 62.7915C322.661 58.6442 317.509 56.8594 311.297 56.8594V62.8594ZM321.414 66.6081C323.432 69.029 324.703 73.0216 324.703 79.125H330.703C330.703 72.3534 329.318 66.721 326.023 62.7669L321.414 66.6081ZM324.703 79.125V96.9375H330.703V79.125H324.703ZM327.703 99.9375H334.266V93.9375H327.703V99.9375ZM331.266 96.9375V111H337.266V96.9375H331.266ZM334.266 108H305.203V114H334.266V108ZM308.203 111V79.125H302.203V111H308.203ZM308.203 79.125C308.203 76.9873 307.759 74.7363 306.194 73.1082L301.869 77.2668C301.869 77.2671 301.887 77.2859 301.917 77.3393C301.947 77.3945 301.991 77.489 302.035 77.637C302.126 77.9424 302.203 78.4208 302.203 79.125H308.203ZM306.233 73.1493C304.815 71.6188 302.949 70.9219 300.938 70.9219V76.9219C301.489 76.9219 301.685 77.0687 301.83 77.2257L306.233 73.1493ZM300.938 70.9219C299.26 70.9219 297.678 71.4214 296.229 72.2736L299.271 77.4452C299.947 77.0474 300.49 76.9219 300.938 76.9219V70.9219ZM296.195 72.2938C294.75 73.1694 293.561 74.3555 292.618 75.79L297.632 79.085C298.127 78.332 298.687 77.7993 299.305 77.425L296.195 72.2938ZM292.125 77.4375V96.9375H298.125V77.4375H292.125ZM295.125 99.9375H299.344V93.9375H295.125V99.9375ZM296.344 96.9375V111H302.344V96.9375H296.344ZM299.344 108H265.828V114H299.344V108ZM337.969 111H334.969V114H337.969V111ZM337.969 96.9375V93.9375H334.969V96.9375H337.969ZM345.234 96.9375V99.9375H348.234V96.9375H345.234ZM345.234 53.7188H348.234V50.7188H345.234V53.7188ZM337.969 53.7188H334.969V56.7188H337.969V53.7188ZM337.969 40.9219L337.663 37.9375L334.969 38.2133V40.9219H337.969ZM367.734 37.875H370.734V34.5522L367.429 34.8906L367.734 37.875ZM367.734 96.9375H364.734V99.9375H367.734V96.9375ZM375 96.9375H378V93.9375H375V96.9375ZM375 111V114H378V111H375ZM340.969 111V96.9375H334.969V111H340.969ZM337.969 99.9375H345.234V93.9375H337.969V99.9375ZM348.234 96.9375V53.7188H342.234V96.9375H348.234ZM345.234 50.7188H337.969V56.7188H345.234V50.7188ZM340.969 53.7188V40.9219H334.969V53.7188H340.969ZM338.274 43.9063L368.04 40.8594L367.429 34.8906L337.663 37.9375L338.274 43.9063ZM364.734 37.875V96.9375H370.734V37.875H364.734ZM367.734 99.9375H375V93.9375H367.734V99.9375ZM372 96.9375V111H378V96.9375H372ZM375 108H337.969V114H375V108ZM386.859 104.859L384.861 107.097L384.868 107.103L384.875 107.11L386.859 104.859ZM382.406 71.8594L379.841 70.3035L379.837 70.3113L379.832 70.319L382.406 71.8594ZM392.062 63.0469L393.404 65.7302L393.412 65.7261L393.42 65.722L392.062 63.0469ZM420.188 62.8594L418.811 65.5249L418.82 65.5294L418.828 65.5338L420.188 62.8594ZM428.906 71.0156L426.302 72.504L426.309 72.5179L426.317 72.5316L428.906 71.0156ZM431.812 86.1562L434.799 86.4452L434.799 86.4363L431.812 86.1562ZM431.484 88.8281V91.8281H434.058L434.449 89.2843L431.484 88.8281ZM401.344 88.8281V85.8281H397.802L398.385 89.3213L401.344 88.8281ZM405.656 95.7188L404.113 98.2912L404.133 98.3033L404.153 98.315L405.656 95.7188ZM422.531 96.2812L423.61 99.0804L423.619 99.077L423.628 99.0735L422.531 96.2812ZM429.188 92.4375L430.406 89.6961L428.688 88.9324L427.251 90.1458L429.188 92.4375ZM430.453 93H433.453V91.0504L431.672 90.2586L430.453 93ZM430.453 106.453L432.153 108.925L433.453 108.031V106.453H430.453ZM424.641 109.219L423.67 106.38L424.641 109.219ZM416.906 111.141L416.408 108.182L416.402 108.183L416.906 111.141ZM401.156 80.6719L398.159 80.543L398.024 83.6719H401.156V80.6719ZM414.188 80.6719V83.6719H417.319L417.185 80.543L414.188 80.6719ZM412.406 73.875L409.873 75.4825L409.884 75.4997L409.895 75.5167L412.406 73.875ZM408.703 108.844C399.916 108.844 393.422 106.646 388.843 102.609L384.875 107.11C390.859 112.385 398.928 114.844 408.703 114.844V108.844ZM388.857 102.622C384.359 98.6049 381.984 92.9985 381.984 85.4062H375.984C375.984 94.3765 378.86 101.739 384.861 107.097L388.857 102.622ZM381.984 85.4062C381.984 80.6342 383.023 76.6709 384.981 73.3998L379.832 70.319C377.227 74.6729 375.984 79.7408 375.984 85.4062H381.984ZM384.971 73.4152C386.98 70.1035 389.767 67.5488 393.404 65.7302L390.721 60.3636C386.108 62.6699 382.457 65.9902 379.841 70.3035L384.971 73.4152ZM393.42 65.722C397.054 63.8774 401.371 62.9062 406.453 62.9062V56.9062C400.598 56.9062 395.321 58.0288 390.705 60.3717L393.42 65.722ZM406.453 62.9062C411.433 62.9062 415.516 63.8233 418.811 65.5249L421.564 60.1938C417.234 57.9579 412.161 56.9062 406.453 56.9062V62.9062ZM418.828 65.5338C422.152 67.223 424.61 69.5441 426.302 72.504L431.511 69.5272C429.202 65.4872 425.848 62.3708 421.547 60.1849L418.828 65.5338ZM426.317 72.5316C428.045 75.4811 428.953 78.9595 428.953 83.0625H434.953C434.953 78.0405 433.83 73.4877 431.495 69.4997L426.317 72.5316ZM428.953 83.0625C428.953 84.0368 428.91 84.9745 428.826 85.8762L434.799 86.4363C434.902 85.338 434.953 84.2132 434.953 83.0625H428.953ZM428.826 85.8673C428.737 86.7899 428.634 87.6239 428.519 88.372L434.449 89.2843C434.584 88.4073 434.7 87.4601 434.799 86.4452L428.826 85.8673ZM431.484 85.8281H401.344V91.8281H431.484V85.8281ZM398.385 89.3213C399.031 93.2013 400.876 96.349 404.113 98.2912L407.2 93.1463C405.749 92.276 404.719 90.8299 404.303 88.3349L398.385 89.3213ZM404.153 98.315C407.083 100.011 410.52 100.781 414.328 100.781V94.7812C411.324 94.7812 408.98 94.1763 407.159 93.1225L404.153 98.315ZM414.328 100.781C417.559 100.781 420.661 100.218 423.61 99.0804L421.452 93.4821C419.214 94.3448 416.847 94.7812 414.328 94.7812V100.781ZM423.628 99.0735C426.502 97.9444 429.018 96.5076 431.124 94.7292L427.251 90.1458C425.732 91.4299 423.81 92.5556 421.434 93.489L423.628 99.0735ZM427.969 95.1789L429.235 95.7414L431.672 90.2586L430.406 89.6961L427.969 95.1789ZM427.453 93V106.453H433.453V93H427.453ZM428.754 103.981C427.545 104.812 425.876 105.625 423.67 106.38L425.612 112.057C428.155 111.187 430.361 110.157 432.153 108.925L428.754 103.981ZM423.67 106.38C421.466 107.134 419.048 107.737 416.408 108.182L417.405 114.099C420.327 113.606 423.065 112.928 425.612 112.057L423.67 106.38ZM416.402 108.183C413.814 108.624 411.249 108.844 408.703 108.844V114.844C411.595 114.844 414.498 114.594 417.41 114.098L416.402 108.183ZM407.672 68.4375C404.66 68.4375 402.093 69.6846 400.427 72.2333L405.448 75.5167C405.907 74.8154 406.496 74.4375 407.672 74.4375V68.4375ZM400.427 72.2333C398.957 74.4806 398.296 77.3472 398.159 80.543L404.153 80.8008C404.266 78.1841 404.793 76.5194 405.448 75.5167L400.427 72.2333ZM401.156 83.6719H414.188V77.6719H401.156V83.6719ZM417.185 80.543C417.047 77.3472 416.387 74.4806 414.917 72.2333L409.895 75.5167C410.551 76.5194 411.078 78.1841 411.19 80.8008L417.185 80.543ZM414.939 72.2675C413.293 69.6732 410.697 68.4375 407.672 68.4375V74.4375C408.897 74.4375 409.457 74.8268 409.873 75.4825L414.939 72.2675Z" fill="#1E1E1E" mask="url(#path-6-outside-1_50_33)"/>
</svg>
